<svg width="191" height="35" viewBox="0 0 191 35" fill="none" xmlns="http://www.w3.org/2000/svg">
<circle cx="16.8367" cy="17" r="16.066" stroke="#18181B" stroke-width="1.54139"/>
<path d="M24.1471 22.0638C23.4729 18.9197 21.7618 16.4925 19.1825 14.5723C15.4486 11.7719 7.04724 10.8384 7.04724 10.8384V17.3728C7.04724 19.8486 8.03073 22.2229 9.78136 23.9735C11.532 25.7242 13.9063 26.7076 16.3821 26.7076C18.8578 26.7076 21.2322 25.7242 22.9828 23.9735C24.7335 22.2229 25.7169 19.8486 25.7169 17.3728V10.8384C22.9252 10.3729 19.0838 10.6516 17.3674 13.2043" stroke="#18181B" stroke-width="1.54139" stroke-linecap="square"/>
<path d="M10.7812 10.831V7.10449C12.3909 7.12743 13.968 7.56198 15.3624 8.36676C16.7567 9.17155 17.9218 10.3198 18.7469 11.7022" stroke="#18181B" stroke-width="1.54139" stroke-linecap="square"/>
<path d="M21.9832 10.1352V8.93101V7.10449C21.9832 7.10449 18.3297 7.15077 16.4628 9.01775" stroke="#18181B" stroke-width="1.54139" stroke-linecap="square"/>
<path d="M16.382 26.7076V32.7606" stroke="#18181B" stroke-width="1.54139" stroke-linecap="square" stroke-linejoin="round"/>
<path d="M61.2733 7.344C61.188 8.19733 61.124 9.02933 61.0813 9.84C61.06 10.6507 61.0493 11.2693 61.0493 11.696C61.0493 12.1867 61.06 12.656 61.0813 13.104C61.1027 13.552 61.124 13.936 61.1453 14.256H60.4093C60.2173 12.6987 59.9507 11.4827 59.6093 10.608C59.2893 9.712 58.7987 9.072 58.1373 8.688C57.476 8.28267 56.5267 8.08 55.2893 8.08H53.5933C52.9107 8.08 52.388 8.144 52.0253 8.272C51.684 8.37867 51.4493 8.61333 51.3213 8.976C51.1933 9.31733 51.1293 9.86133 51.1293 10.608V26.544C51.1293 27.3333 51.2147 27.9307 51.3853 28.336C51.556 28.72 51.876 28.976 52.3453 29.104C52.8147 29.232 53.508 29.3067 54.4253 29.328V30C53.8493 29.9573 53.1027 29.936 52.1853 29.936C51.268 29.9147 50.3187 29.904 49.3373 29.904C48.484 29.904 47.6627 29.9147 46.8733 29.936C46.1053 29.936 45.4547 29.9573 44.9213 30V29.36C45.6467 29.3173 46.1907 29.232 46.5533 29.104C46.916 28.976 47.1507 28.72 47.2573 28.336C47.3853 27.952 47.4493 27.376 47.4493 26.608V10.736C47.4493 9.94666 47.3853 9.37067 47.2573 9.008C47.1507 8.624 46.9053 8.368 46.5213 8.24C46.1587 8.09067 45.6253 8.00533 44.9213 7.984V7.344C45.7533 7.36533 46.6173 7.38667 47.5133 7.408C48.4307 7.408 49.3267 7.41867 50.2013 7.44C51.0973 7.44 51.9293 7.44 52.6973 7.44C53.4653 7.44 54.0947 7.44 54.5853 7.44C55.5667 7.44 56.676 7.44 57.9133 7.44C59.172 7.41867 60.292 7.38667 61.2733 7.344ZM56.3773 18.544C56.3773 18.544 56.3773 18.6507 56.3773 18.864C56.3773 19.0773 56.3773 19.184 56.3773 19.184H50.1693C50.1693 19.184 50.1693 19.0773 50.1693 18.864C50.1693 18.6507 50.1693 18.544 50.1693 18.544H56.3773ZM57.0493 14.32C56.964 15.536 56.9213 16.464 56.9213 17.104C56.9427 17.744 56.9533 18.3307 56.9533 18.864C56.9533 19.3973 56.964 19.984 56.9853 20.624C57.0067 21.264 57.06 22.192 57.1453 23.408H56.4093C56.324 22.704 56.196 22.032 56.0253 21.392C55.8547 20.7307 55.5453 20.1973 55.0973 19.792C54.6493 19.3867 53.9773 19.184 53.0813 19.184V18.544C53.764 18.544 54.2973 18.4053 54.6813 18.128C55.0867 17.8507 55.396 17.488 55.6093 17.04C55.8227 16.592 55.972 16.1333 56.0573 15.664C56.164 15.1733 56.2493 14.7253 56.3133 14.32H57.0493ZM68.3553 4.912V27.024C68.3553 27.92 68.526 28.528 68.8673 28.848C69.23 29.168 69.8273 29.328 70.6593 29.328V30C70.2967 29.9787 69.7313 29.9573 68.9633 29.936C68.1953 29.8933 67.4273 29.872 66.6593 29.872C65.8913 29.872 65.1127 29.8933 64.3233 29.936C63.5553 29.9573 62.9793 29.9787 62.5953 30V29.328C63.4273 29.328 64.014 29.168 64.3553 28.848C64.718 28.528 64.8993 27.92 64.8993 27.024V8.752C64.8993 7.792 64.7393 7.088 64.4193 6.64C64.0993 6.17067 63.4913 5.936 62.5953 5.936V5.264C63.278 5.328 63.9393 5.36 64.5793 5.36C65.2833 5.36 65.9553 5.328 66.5953 5.264C67.2353 5.17867 67.822 5.06133 68.3553 4.912ZM79.8811 13.04C81.3104 13.04 82.5798 13.3387 83.6891 13.936C84.7984 14.5333 85.6838 15.472 86.3451 16.752C87.0064 18.032 87.3371 19.7067 87.3371 21.776C87.3371 23.8453 87.0064 25.52 86.3451 26.8C85.6838 28.0587 84.7984 28.9867 83.6891 29.584C82.5798 30.16 81.3104 30.448 79.8811 30.448C78.4731 30.448 77.2038 30.16 76.0731 29.584C74.9424 28.9867 74.0464 28.0587 73.3851 26.8C72.7451 25.52 72.4251 23.8453 72.4251 21.776C72.4251 19.7067 72.7451 18.032 73.3851 16.752C74.0464 15.472 74.9424 14.5333 76.0731 13.936C77.2038 13.3387 78.4731 13.04 79.8811 13.04ZM79.8811 13.68C78.7718 13.68 77.8651 14.32 77.1611 15.6C76.4571 16.8587 76.1051 18.9173 76.1051 21.776C76.1051 24.6347 76.4571 26.6933 77.1611 27.952C77.8651 29.1893 78.7718 29.808 79.8811 29.808C80.9691 29.808 81.8651 29.1893 82.5691 27.952C83.2944 26.6933 83.6571 24.6347 83.6571 21.776C83.6571 18.9173 83.2944 16.8587 82.5691 15.6C81.8651 14.32 80.9691 13.68 79.8811 13.68ZM95.9426 13.488V14.16C95.4306 14.16 94.9719 14.2027 94.5666 14.288C94.1826 14.352 93.9266 14.544 93.7986 14.864C93.6919 15.184 93.7773 15.7493 94.0546 16.56L97.2866 26.096L96.9986 26.224L101.383 13.392L102.023 13.68L96.4866 30.128C96.3159 30.128 96.1453 30.128 95.9746 30.128C95.8039 30.128 95.6226 30.128 95.4306 30.128L90.2466 15.952C89.9053 15.0987 89.5639 14.5867 89.2226 14.416C88.9026 14.2453 88.6253 14.16 88.3906 14.16V13.488C88.9026 13.552 89.4253 13.6053 89.9586 13.648C90.5133 13.6693 91.1213 13.68 91.7826 13.68C92.4439 13.68 93.1373 13.6587 93.8626 13.616C94.6093 13.5733 95.3026 13.5307 95.9426 13.488ZM113.223 13.488V14.128C112.817 14.192 112.433 14.3947 112.071 14.736C111.708 15.0773 111.388 15.6853 111.111 16.56L106.599 30.128C106.428 30.128 106.247 30.128 106.055 30.128C105.884 30.128 105.713 30.128 105.543 30.128L100.583 17.296L101.383 13.392C101.596 13.4133 101.799 13.424 101.991 13.424C102.204 13.4027 102.417 13.392 102.631 13.392L107.431 26.512L107.143 26.544L109.959 17.84C110.236 16.9653 110.343 16.272 110.279 15.76C110.215 15.248 109.991 14.864 109.607 14.608C109.223 14.352 108.647 14.192 107.879 14.128V13.488C108.263 13.5093 108.604 13.5307 108.903 13.552C109.223 13.552 109.532 13.5627 109.831 13.584C110.151 13.584 110.471 13.584 110.791 13.584C111.26 13.584 111.697 13.5733 112.103 13.552C112.529 13.5307 112.903 13.5093 113.223 13.488ZM121.755 13.04C123.632 13.04 125.104 13.6053 126.171 14.736C127.237 15.8667 127.771 17.6587 127.771 20.112H116.731L116.667 19.504H124.379C124.4 18.4587 124.315 17.4987 124.123 16.624C123.931 15.728 123.632 15.0133 123.227 14.48C122.821 13.9467 122.288 13.68 121.627 13.68C120.709 13.68 119.909 14.1707 119.227 15.152C118.565 16.112 118.16 17.6587 118.011 19.792L118.107 19.952C118.085 20.2507 118.064 20.5813 118.043 20.944C118.021 21.2853 118.011 21.6267 118.011 21.968C118.011 23.44 118.235 24.6773 118.683 25.68C119.131 26.6827 119.717 27.44 120.443 27.952C121.168 28.4427 121.904 28.688 122.651 28.688C123.227 28.688 123.781 28.6027 124.315 28.432C124.869 28.24 125.392 27.9307 125.883 27.504C126.373 27.056 126.811 26.448 127.195 25.68L127.835 25.936C127.579 26.6613 127.184 27.376 126.651 28.08C126.117 28.784 125.435 29.36 124.603 29.808C123.771 30.2347 122.8 30.448 121.691 30.448C120.197 30.448 118.896 30.1173 117.787 29.456C116.677 28.7733 115.824 27.8027 115.227 26.544C114.629 25.2853 114.331 23.792 114.331 22.064C114.331 20.1653 114.64 18.544 115.259 17.2C115.877 15.856 116.741 14.832 117.851 14.128C118.981 13.4027 120.283 13.04 121.755 13.04ZM140.216 13.04C140.835 13.04 141.358 13.168 141.784 13.424C142.232 13.68 142.563 14.0107 142.776 14.416C143.011 14.8 143.128 15.2373 143.128 15.728C143.128 16.3467 142.936 16.88 142.552 17.328C142.19 17.7547 141.699 17.968 141.08 17.968C140.547 17.968 140.088 17.808 139.704 17.488C139.342 17.168 139.16 16.7307 139.16 16.176C139.16 15.7067 139.278 15.312 139.512 14.992C139.768 14.6507 140.056 14.384 140.376 14.192C140.163 14.0213 139.907 13.9467 139.608 13.968C139.032 13.9893 138.499 14.1813 138.008 14.544C137.518 14.8853 137.102 15.3333 136.76 15.888C136.419 16.4213 136.152 16.9973 135.96 17.616C135.768 18.2347 135.672 18.8107 135.672 19.344V26.704C135.672 27.7493 135.96 28.4533 136.536 28.816C137.112 29.1573 137.912 29.328 138.936 29.328V30C138.446 29.9787 137.742 29.9573 136.824 29.936C135.928 29.8933 134.979 29.872 133.976 29.872C133.208 29.872 132.44 29.8933 131.672 29.936C130.904 29.9573 130.318 29.9787 129.912 30V29.328C130.744 29.328 131.331 29.168 131.672 28.848C132.035 28.528 132.216 27.92 132.216 27.024V16.976C132.216 16.016 132.056 15.312 131.736 14.864C131.416 14.3947 130.808 14.16 129.912 14.16V13.488C130.595 13.552 131.256 13.584 131.896 13.584C132.622 13.584 133.294 13.552 133.912 13.488C134.552 13.4027 135.139 13.2853 135.672 13.136V16.816C135.928 16.1973 136.27 15.6 136.696 15.024C137.123 14.448 137.635 13.9787 138.232 13.616C138.83 13.232 139.491 13.04 140.216 13.04ZM150.333 13.04C151.186 13.04 151.922 13.1787 152.541 13.456C153.181 13.712 153.64 13.9467 153.917 14.16C154.621 14.7147 155.058 14.352 155.229 13.072H155.933C155.89 13.6693 155.858 14.3947 155.837 15.248C155.816 16.08 155.805 17.1893 155.805 18.576H155.101C154.973 17.7867 154.749 17.0187 154.429 16.272C154.13 15.5253 153.682 14.9067 153.085 14.416C152.509 13.9253 151.752 13.68 150.813 13.68C150.109 13.68 149.522 13.8827 149.053 14.288C148.584 14.672 148.349 15.248 148.349 16.016C148.349 16.656 148.541 17.2107 148.925 17.68C149.309 18.1493 149.8 18.5867 150.397 18.992C151.016 19.3973 151.677 19.8347 152.381 20.304C153.17 20.8373 153.874 21.3707 154.493 21.904C155.133 22.416 155.634 22.992 155.997 23.632C156.381 24.272 156.573 25.0187 156.573 25.872C156.573 26.8533 156.306 27.6853 155.773 28.368C155.261 29.0507 154.578 29.5733 153.725 29.936C152.872 30.2773 151.933 30.448 150.909 30.448C150.397 30.448 149.917 30.3947 149.469 30.288C149.021 30.2027 148.605 30.0853 148.221 29.936C147.986 29.808 147.752 29.68 147.517 29.552C147.304 29.4027 147.09 29.264 146.877 29.136C146.664 28.9867 146.472 29.008 146.301 29.2C146.13 29.392 146.002 29.7333 145.917 30.224H145.213C145.256 29.5413 145.288 28.7093 145.309 27.728C145.33 26.7467 145.341 25.4453 145.341 23.824H146.045C146.194 24.9973 146.418 26.032 146.717 26.928C147.016 27.824 147.453 28.528 148.029 29.04C148.626 29.5307 149.437 29.776 150.461 29.776C150.866 29.776 151.272 29.6907 151.677 29.52C152.082 29.328 152.413 29.0293 152.669 28.624C152.946 28.2187 153.085 27.6747 153.085 26.992C153.085 26.0533 152.754 25.2853 152.093 24.688C151.453 24.0693 150.621 23.4187 149.597 22.736C148.872 22.224 148.178 21.7227 147.517 21.232C146.877 20.72 146.354 20.1547 145.949 19.536C145.544 18.896 145.341 18.1387 145.341 17.264C145.341 16.304 145.565 15.5147 146.013 14.896C146.482 14.2773 147.101 13.8187 147.869 13.52C148.637 13.2 149.458 13.04 150.333 13.04ZM180.422 25.36C180.508 26.2347 180.721 26.9813 181.062 27.6C181.404 28.2187 181.948 28.528 182.694 28.528C183.292 28.528 183.772 28.3467 184.134 27.984C184.518 27.6 184.849 27.0027 185.126 26.192L185.67 24.56H186.31L185.478 27.024C185.073 28.2187 184.529 29.0933 183.846 29.648C183.185 30.1813 182.374 30.448 181.414 30.448C180.326 30.448 179.473 30.2027 178.854 29.712C178.257 29.2213 177.82 28.6027 177.542 27.856C177.265 27.088 177.073 26.288 176.966 25.456L175.366 11.952C175.26 11.056 175.036 10.3093 174.694 9.712C174.374 9.09333 173.83 8.784 173.062 8.784C172.486 8.784 172.006 8.976 171.622 9.36C171.26 9.72267 170.929 10.32 170.63 11.152L170.086 12.784H169.446L170.278 10.32C170.705 9.104 171.26 8.22933 171.942 7.696C172.625 7.16267 173.457 6.896 174.438 6.896C175.505 6.896 176.337 7.14133 176.934 7.632C177.532 8.10133 177.969 8.72 178.246 9.488C178.545 10.2347 178.737 11.0347 178.822 11.888L180.422 25.36ZM187.91 7.536C187.505 7.536 187.132 7.6 186.79 7.728C186.47 7.83467 186.15 8.00533 185.83 8.24C185.148 8.752 184.358 9.584 183.462 10.736C182.566 11.8667 181.638 13.3067 180.678 15.056C179.74 16.784 178.844 18.8 177.99 21.104L178.47 18.672C179.004 17.2853 179.644 15.8987 180.39 14.512C181.158 13.104 181.969 11.8347 182.822 10.704C183.676 9.552 184.476 8.656 185.222 8.016C186.204 7.26933 187.185 6.896 188.166 6.896C188.998 6.896 189.574 7.12 189.894 7.568C190.236 8.016 190.396 8.53867 190.374 9.136C190.332 9.712 190.118 10.256 189.734 10.768C189.372 11.28 188.849 11.536 188.166 11.536C187.633 11.536 187.238 11.376 186.982 11.056C186.748 10.7147 186.641 10.3307 186.662 9.904C186.684 9.456 186.833 9.01867 187.11 8.592C187.388 8.16533 187.729 7.83467 188.134 7.6C188.113 7.57867 188.081 7.568 188.038 7.568C187.996 7.54667 187.953 7.536 187.91 7.536ZM167.142 29.808C167.548 29.7867 167.91 29.7227 168.23 29.616C168.572 29.488 168.892 29.3173 169.19 29.104C169.916 28.6133 170.748 27.856 171.686 26.832C172.625 25.808 173.596 24.5067 174.598 22.928C175.601 21.328 176.54 19.4613 177.414 17.328L176.934 19.76C176.401 21.0187 175.729 22.2773 174.918 23.536C174.108 24.7733 173.254 25.904 172.358 26.928C171.484 27.952 170.641 28.752 169.83 29.328C168.849 30.0747 167.857 30.448 166.854 30.448C166.044 30.448 165.468 30.224 165.126 29.776C164.785 29.328 164.636 28.8053 164.678 28.208C164.7 27.632 164.902 27.088 165.286 26.576C165.649 26.064 166.182 25.808 166.886 25.808C167.441 25.808 167.836 25.9787 168.07 26.32C168.305 26.64 168.401 27.0133 168.358 27.44C168.358 27.888 168.22 28.3253 167.942 28.752C167.665 29.1573 167.313 29.488 166.886 29.744C166.929 29.7653 166.972 29.7867 167.014 29.808C167.057 29.808 167.1 29.808 167.142 29.808Z" fill="#18181B"/>
</svg>
